<svg id="Layer_1" enable-background="new 0 0 512.005 512.005" height="512" viewBox="0 0 512.005 512.005" width="512" xmlns="http://www.w3.org/2000/svg"><path d="m385.385 209.895c-92.204-64.466-164.674-64.362-256.742 0-32.618 21.978-32.611 72.188 0 94.16 92.204 64.466 164.674 64.362 256.742 0 32.618-21.978 32.611-72.189 0-94.16zm-22.793 61.289c-79.237 55.009-131.996 54.951-211.156-.001-4.717-3.269-7.422-8.448-7.422-14.208s2.705-10.938 7.422-14.209c27.495-19.065 68.132-41.791 105.578-41.791s78.083 22.726 105.578 41.791c9.839 6.563 9.863 21.848 0 28.418zm107.619-257.116c-26.133-16.59-58.454-18.632-86.451-5.462-82.543 39.054-172.971 39.055-255.513 0-28.001-13.169-60.317-11.127-86.452 5.462-26.164 16.609-41.783 45.026-41.781 76.014l.023 331.847c-.986 48.58 41.701 90.869 89.924 90.065 12.92-.001 25.897-2.811 38.061-8.487 82.491-38.742 173.472-38.742 255.963 0 27.985 13.06 60.253 10.949 86.312-5.648 26.092-16.616 41.67-45 41.672-75.93l.023-331.846c.002-30.989-15.617-59.405-41.781-76.015zm1.757 407.858c-.001 17.443-8.442 32.822-23.158 42.194-14.684 9.351-32.146 10.495-47.911 3.139-93.068-43.74-196.723-43.74-289.791 0-32.294 15.853-71.787-9.39-71.07-45.333l-.024-331.847c-.001-17.22 8.679-33.01 23.219-42.241 14.769-9.379 32.286-10.429 47.989-3.036 93.177 44.121 196.384 44.121 289.562 0 15.771-7.419 33.265-6.311 47.989 3.037 14.54 9.23 23.22 25.021 23.218 42.24zm-238.954-164.951c0-13.807 11.193-25 25-25 33.162 1.317 33.153 48.688 0 50-13.807 0-25-11.193-25-25z"/></svg>